# xmcd CD database file
#
# Track frame offsets:
#	150
#	45871
#	72700
#	93849
#	114333
#	141321
#	245667
#
# Disc length: 3663 seconds
#
# Revision: 0
# Processed by: cddbd v1.5.1PL0 Copyright (c) Steve Scherf et al.
# Submitted via: CDex 1.51
#
DISCID=5d0e4d07
DTITLE=Art Ensemble of Chicago - Reunion - Live in Roma 22-01-2003
DYEAR=2004
DGENRE=Jazz
TTITLE0=ILLINSTRUM
TTITLE1=T TWO TWIN
TTITLE2=WOLONÀ
TTITLE3=CE SOIR A BANKONI
TTITLE4=HAIL WE NOW SING JOY
TTITLE5=MEDLEY (ALL IN TOGETHER,ZERO,ALTERNATE LINE,ODWALLA
TTITLE6=URBAN BUSHMEN
EXTD=YEAR: 2004
EXTT0=
EXTT1=
EXTT2=
EXTT3=
EXTT4=
EXTT5=
EXTT6=
PLAYORDER=
